<svg xmlns="http://www.w3.org/2000/svg" width="128" height="128" viewBox="0 0 128 128">
  <rect x="54.00" y="28.00" width="20.00" height="22.00" rx="5.00" ry="5.00" fill="#E5B845"/>
  <path fill="#DCE3EC" fill-rule="evenodd" d="M 34.00 46.00 H 94.00 A 18.00 18.00 0 0 1 112.00 64.00 V 64.00 A 18.00 18.00 0 0 1 94.00 82.00 H 34.00 A 18.00 18.00 0 0 1 16.00 64.00 V 64.00 A 18.00 18.00 0 0 1 34.00 46.00 Z M 40.00 54.00 H 88.00 A 10.00 10.00 0 0 1 98.00 64.00 V 64.00 A 10.00 10.00 0 0 1 88.00 74.00 H 40.00 A 10.00 10.00 0 0 1 30.00 64.00 V 64.00 A 10.00 10.00 0 0 1 40.00 54.00 Z"/>
</svg>
