<svg xmlns="http://www.w3.org/2000/svg" width="128" height="128" viewBox="0 0 128 128">
  <rect x="12.4" y="91.0" width="9.9" height="9.9" rx="2.8" fill="#C8FFCE"/>
  <rect x="12.4" y="75.0" width="9.9" height="9.9" rx="2.8" fill="#5BF06A"/>
  <rect x="12.4" y="59.0" width="9.9" height="9.9" rx="2.8" fill="#34C63F"/>
  <rect x="12.4" y="43.0" width="9.9" height="9.9" rx="2.8" fill="#1E9128"/>
  <rect x="31.0" y="107.0" width="9.9" height="9.9" rx="2.8" fill="#34C63F"/>
  <rect x="31.0" y="91.0" width="9.9" height="9.9" rx="2.8" fill="#1E9128"/>
  <rect x="31.0" y="75.0" width="9.9" height="9.9" rx="2.8" fill="#135C18"/>
  <rect x="31.0" y="59.0" width="9.9" height="9.9" rx="2.8" fill="#0C3E10"/>
  <rect x="49.7" y="59.0" width="9.9" height="9.9" rx="2.8" fill="#C8FFCE"/>
  <rect x="49.7" y="43.0" width="9.9" height="9.9" rx="2.8" fill="#5BF06A"/>
  <rect x="49.7" y="27.0" width="9.9" height="9.9" rx="2.8" fill="#34C63F"/>
  <rect x="49.7" y="11.0" width="9.9" height="9.9" rx="2.8" fill="#1E9128"/>
  <rect x="68.4" y="107.0" width="9.9" height="9.9" rx="2.8" fill="#5BF06A"/>
  <rect x="68.4" y="91.0" width="9.9" height="9.9" rx="2.8" fill="#34C63F"/>
  <rect x="68.4" y="75.0" width="9.9" height="9.9" rx="2.8" fill="#1E9128"/>
  <rect x="87.0" y="43.0" width="9.9" height="9.9" rx="2.8" fill="#C8FFCE"/>
  <rect x="87.0" y="27.0" width="9.9" height="9.9" rx="2.8" fill="#5BF06A"/>
  <rect x="87.0" y="11.0" width="9.9" height="9.9" rx="2.8" fill="#34C63F"/>
  <rect x="105.7" y="107.0" width="9.9" height="9.9" rx="2.8" fill="#C8FFCE"/>
  <rect x="105.7" y="91.0" width="9.9" height="9.9" rx="2.8" fill="#5BF06A"/>
  <rect x="105.7" y="75.0" width="9.9" height="9.9" rx="2.8" fill="#34C63F"/>
</svg>
